/* XPM */
static char *dummy[]={
"64 64 12 1",
"i c #676767",
"f c #737373",
"e c #7f7f7f",
"g c #8f8f8f",
"b c #9b9b9b",
"a c #ababab",
"# c #b7b7b7",
"h c #bbbbbb",
". c #c3c3c3",
"d c #d3d3d3",
"j c #dfdfdf",
"c c #efefef",
".##a####..#...#.#...#######...##########..#...#.#...#######...#b",
"aaacd.a#.a##...#.#aa#aaa#####a##aaacd.a#.a##...#.#aa#aaa#####a##",
"eb.a#a#.#a#.a#aa#aaa##aa####.aa.eb.a#a#.#a#.a#aa#aaa##aa####.aa.",
"fg####b#.#.ab#aa#.#...#aaa##.a#hfg####b#.#.ab#aa#.#...#aaa##.a#h",
"fg#####ba###b##ba####a####.aba#hfg#####ba###b##ba####a####.aba#h",
"fg#a#aab#a###bab#a#aaaa.#aaaa#a.fg#a#aab#a###bab#a#aaaa.#aaaa#a.",
"fg##aba#bbaaa#gbb#baa#b#.aa.#bbhfg##aba#bbaaa#gbb#baa#b#.aa.#bbh",
"fg##b#abbbgaaagbbagaabb#aabbbbbhfg##b#abbbgaaagbbagaabb#aabbbbbh",
"fg#baggbagbbbababbbgabb#aabbggahfg#baggbagbbbababbbgabb#aabbggah",
"fg#bggbgagaabgggbaggbgbgbbbabgbafg#bggbgagaabgggbaggbgbgbbbabgba",
"fg#abbabbgbgbbbbbgbbabaabgbbbbg#fg#abbabbgbgbbbbbgbbabaabgbbbbg#",
"fg#abegggbabgggbbgbgbggbggbbagg#fg#abegggbabgggbbgbgbggbggbbagg#",
"fg#bgegeeebeegebegbbggbggbbbgggbfg#bgegeeebeegebegbbggbggbbbgggb",
"fgabeeeggeeeegeeegggfegfefeeeegefgabeeeggeeeegeeegggfegfefeeeege",
"fgbeiiiiffffffffffffffffffffiiiifgbeiiiiffffffffffffffffffffiiii",
"gbbgfffffffffffffffffffffffffffegbbgffffffffffffffffffffffffffff",
"...#######...#bgega##...#..#.#.#...#######...#bgega##########h##",
"#aa#aaa#####a##bgajjjjdjdjjd..dd.d.dd.......a##bgajjjjdjdddjjjdj",
"aaa##aa####.aa.bb.d..aa#.#aa#aa#aaa##aa####.aa.bb.d..aa#.#aa##a#",
".#...#aaa##.a#hgg#.a.####.aa#aa#.#...#aaa##.a#hgg#.a.####.aaa##b",
"####a####.aba#hgg.#a##aaa#..##ba####a####.aba#hgg.#a##aaa#..a#.a",
"a#aaaa.#aaaa#a.gg##abba#ab#abab#a#aaaa.#aaaa#a.gg##abba#ab#aaaab",
"#baa#b#.aa.#bbhgg#abab#a#aa##gbb#baa#b#.aa.#bbhgg#abab#a#aa#abab",
"agaabb#aabbbbbhgg#ababggaabgagbbagaabb#aabbbbbhgg#ababggaabg#abb",
"bbgabb#aabbggaheg#agabgaabgbababbbgabb#aabbggaheg#agabgaabgbabbb",
"aggbgbgbbbabgbaeg.abababbbaggggbaggbgbgbbbabgbaeg.abababbbagabag",
"gbbabaabgbbbbg#fg#abbabbgbgbbbbbgbbabaabgbbbbg#fg#abbabbgbgbbbbb",
"gbgbggbggbbagg#fg#abegggbabgggbbgbgbggbggbbagg#fg#abegggbabgggbb",
"gbbggbggbbbgggbeg#bgegeeebeegebegbbggbggbbbgggbeg#bgegeeebeegebe",
"gggfegfefeeeegefgabeeeggeeeegeeegggfegfefeeeegefgabeeeggeeeegeee",
"fffffffffffiiiifgbeiiiiffffffffffffffffffffiiiifgbeiiiifffffffff",
"ffffffffffffffeegbgfffffffffffffffffffffffffffeegbgfffffffffffff",
"geb#.###..#...#.#...#######..#.ageea####..#...#.#...#######...#b",
"bgjjd.a#.a##...#.#aa#aaa####a.ahagbcj.hh...h..d..#aa#aaa#####a##",
"bbd.#.#.#a#.a#aa#aaa##aa####aa#aagad#a#.#a#.a#aa#aaa##aa####.aa.",
"gg.#a.b#.#.ab#aa#.#...#aaa##a###beb###b#.#.ab#aa#.#...#aaa##.a#h",
"gg.#baa#a###b##ba####a####.a##abaeb####ba###b##ba####a####.aba#h",
"gg.abbaaaa###bab#a#aaaa.#aaaa#abbeba#aab#a###bab#a#aaaa.#aaaa#a.",
"gg.bbabbbbaaa#gbb#baa#b#.aa.aaabbeb#aba#bbaaa#gbb#baa#b#.aa.#bbh",
"gg##babbabgaaagbbagaabb#aabbaababeb#b#abbbgaaagbbagaabb#aabbbbbh",
"egagabgaagbbbababbbgabb#aabbaababebbaggbagbbbababbbgabb#aabbggah",
"egagagbgagaabgggbaggbgbgbbbabgbagebbggbgagaabgggbaggbgbgbbbabgba",
"fgabbgabbgbgbbbbbgbbabaabgbbggbggebabbabbgbgbbbbbgbbabaabgbbbbg#",
"fgaegggggbabgggbbgbgbggbggbbbbgbgebabegggbabgggbbgbgbggbggbbagg#",
"eg.bgegeeebeegebegbbggbggbbbaggggebbgegeeebeegebegbbggbggbbbgggb",
"fgaeggeggeeeegeeegggfegfefeegggggebbeeeggeeeegeeegggfegfefeeeege",
"fgbfiiiiffffffffffffffffffffiiiiiebeiiiiffffffffffffffffffffiiii",
"egbgfffffffffffiiiffffffffffffffeebgeffffffffffiiiffffffffffffff",
".hh#######h###bgega##.#.#.##.#.#...#######...#bgega##.#.#.###.##",
"#aa#aaa#####a##bgajjdjddddddd................##bgajjjcjjdddjjjdj",
"aaa##aa####.aa.bb...aa.#.#aa#aa#aaa##aa####.aa.bb.d.aa.#.#aa##a#",
".#...#aaa##.a#hgg#.a.####.aa#aa#.#...#aaa##.a#hgg#.a.####.aaa##b",
"####a####.aba#hgg.#a##aaa#..##ba####a####.aba#hgg.#a##aaa#..a#.a",
"a#aaaa.#aaaa#a.gg##abba#ab#abab#a#aaaa.#aaaa#a.gg##abba#ab#aaaab",
"#baa#b#.aa.#bbhgg#abab#a#aa##gbb#baa#b#.aa.#bbhgg#abab#a#aa#abab",
"agaabb#aabbbbbhgg#ababggaabgagbbagaabb#aabbbbbhgg#ababggaabg#abb",
"bbgabb#aabbggaheg#agabgaabgbababbbgabb#aabbggaheg#agabgaabgbabbb",
"aggbgbgbbbabgbaeg.abababbbaggggbaggbgbgbbbabgbaeg.abababbbagabag",
"gbbabaabgbbbbg#fg#abbabbgbgbbbbbgbbabaabgbbbbg#fg#abbabbgbgbbbbb",
"gbgbggbggbbagg#fg#abegggbabgggbbgbgbggbggbbagg#fg#abegggbabgggbb",
"gbbggbggbbbgggbeg#bgegeeebeegebegbbggbggbbbgggbeg#bgegeeebeegebe",
"gggfegfefeeeegefgabeeeggeeeegeeegggfegfefeeeegefgabeeeggeeeegeee",
"fffffffffffiiiifgbeiiiiffffffffffffffffffffiiiifgbeiiiifffffffff",
"ffffffffffffffeegbgfffffffffffffffffffffffffffeegbgfffffffffffff"};
